<svg width="393" height="533" viewBox="0 0 393 533" fill="none" xmlns="http://www.w3.org/2000/svg">
<path d="M206.5 -19.0101C240.46 -31.2568 292.003 -35.7611 344.306 -45.024C396.802 -53.7958 447.893 -27.4081 462.078 11.8197C476.814 50.8306 454.644 102.681 453.798 179.602C452.758 256.03 487.922 331.5 508.5 435C470.236 496.029 424.5 598 344.306 472.5C322.5 358.5 249.5 458.5 171 374C116.603 327.925 -35.1283 438.5 -106.23 286C-144.554 271.034 -111.792 133.559 -119.601 68.5588C-126.666 3.83309 -147.732 -68.9914 -106.23 -83.0752C-64.5344 -96.668 39.728 -51.5201 98.3176 -19.0102C157.101 13.9908 172.734 -6.2724 206.5 -19.0101Z" fill="#1EC968"/>
</svg>
